# xmcd CD database file
#
# Track frame offsets:
#	150
#	19964
#	44606
#	69546
#	88974
#	102606
#	117703
#	136856
#	157562
#	184558
#	202514
#	240010
#	260828
#	276878
#
# Disc length: 3772 seconds
#
# Revision: 0
# Processed by: cddbd v1.5.2PL0 Copyright (c) Steve Scherf et al.
# Submitted via: CDex 1.51
#
DISCID=bf0eba0e
DTITLE=Blue Note BigBand - Evolution
DYEAR=2007
DGENRE=Jazz
TTITLE0=Flight to Nassau
TTITLE1=Qientude
TTITLE2=Remedy
TTITLE3=Girl Talk
TTITLE4=Johnny one note
TTITLE5=New Bread
TTITLE6=Home Basie
TTITLE7=How deep is the ocean
TTITLE8=Ray El
TTITLE9=My heart belongs to daddy
TTITLE10=A long time ago
TTITLE11=US
TTITLE12=I wish you love
TTITLE13=Thank you for the music
EXTD=YEAR: 2007
EXTT0=
EXTT1=
EXTT2=
EXTT3=
EXTT4=
EXTT5=
EXTT6=
EXTT7=
EXTT8=
EXTT9=
EXTT10=
EXTT11=
EXTT12=
EXTT13=
PLAYORDER=
